<svg width="62" height="32" viewBox="0 0 62 32" fill="none" xmlns="http://www.w3.org/2000/svg">
<g clip-path="url(#clip0_10_40)">
<path d="M31.9329 16.699C31.8371 20.5806 30.0747 24.3301 26.9825 27.4419C20.8906 33.5754 10.9218 33.482 4.71405 27.2335C-1.49368 20.985 -1.58172 10.9481 4.50861 4.81625C7.69666 1.60646 11.4485 0.0808681 15.1787 0.0202179V6.34339C13.0193 6.44603 10.9032 7.32157 9.22117 9.01511C5.50488 12.7568 5.52959 18.8467 9.27523 22.6163C13.0209 26.386 19.068 26.4108 22.7827 22.6692C24.457 20.9834 25.3282 18.8638 25.4363 16.699H31.9329Z" fill="currentColor"/>
<path d="M62 27.9271C59.2058 30.6035 55.3273 32 50.9546 32C42.3404 32 35.3557 24.8371 35.3557 15.9992C35.3557 7.16139 42.3404 0 50.9546 0C55.4632 0 59.1873 1.59246 61.8671 4.20508L57.4264 8.6761C55.8278 7.21116 53.7163 6.32473 51.3376 6.32473C46.0829 6.32473 41.8229 10.648 41.8229 15.9806C41.8229 21.3131 46.0829 25.6348 51.3376 25.6348C53.7055 25.6348 55.8092 24.7562 57.4063 23.3021L62 27.9271Z" fill="currentColor"/>
</g>
<defs>
<clipPath id="clip0_10_40">
<rect width="62" height="32" fill="white"/>
</clipPath>
</defs>
</svg>
